<svg width="28" height="30" viewBox="0 0 28 30" fill="none" xmlns="http://www.w3.org/2000/svg">
<path d="M26.224 0H1.77865C0.796876 0 0 0.826801 0 1.84544V27.2061C0 28.2247 0.796876 29.0515 1.77865 29.0515H26.2214C27.2031 29.0515 28 28.2247 28 27.2088V1.84544C28 0.826801 27.2031 0 26.224 0ZM15.3333 22.2615C15.3333 25.0256 13.7708 26.2847 11.4896 26.2847C9.42708 26.2847 7.9401 24.85 7.33333 23.5179L9.42969 22.202C9.83333 22.9451 10.4479 23.5179 11.3333 23.5179C12.1797 23.5179 12.6667 23.1747 12.6667 21.84V13.1424H15.3333V22.2615ZM21.1172 26.2847C18.7552 26.2847 17.4141 25.0499 16.6667 23.5179L18.6667 22.1345C19.2109 23.0586 19.8047 23.9421 21.0599 23.9421C22.1146 23.9421 22.6667 23.3963 22.6667 22.6398C22.6667 21.7373 22.0938 21.4158 20.9349 20.8889L20.2995 20.6052C18.4635 19.7946 17.2422 18.7786 17.2422 16.6279C17.2422 14.65 18.6979 13.1424 20.9688 13.1424C22.5859 13.1424 23.7474 13.726 24.5859 15.2553L22.6068 16.5765C22.1693 15.7633 21.7005 15.4444 20.9688 15.4444C20.224 15.4444 19.7526 15.9362 19.7526 16.5765C19.7526 17.3682 20.224 17.6871 21.3151 18.1788L21.9505 18.4625C24.1146 19.4217 25.3333 20.4025 25.3333 22.6073C25.3333 24.9824 23.5339 26.2847 21.1172 26.2847Z" fill="#758496"/>
</svg>
