<svg width="40" height="36" viewBox="0 0 40 36" fill="none" xmlns="http://www.w3.org/2000/svg">
<path d="M29.7792 0.356717L29.5284 4.36436C29.5207 4.58941 29.8851 4.72798 30.1374 4.58941L32.3348 3.40541L34.2005 4.43864C34.4434 4.55393 34.7689 4.43864 34.7845 4.23022L34.5742 0.153841L37.3401 0.0041777C38.7759 -0.065665 40 0.749167 40 1.77685V33.7072C40 34.7238 38.8071 35.5319 37.3806 35.4798L3.94603 34.4178C2.64876 34.3779 1.60223 33.6329 1.56174 32.7028L0.00439985 3.43423C-0.0765818 2.45311 0.96995 1.60945 2.3482 1.55735L29.7558 0.327893L29.7792 0.356717ZM23.405 13.7521C23.405 14.445 29.9676 14.1046 30.8584 13.6313C30.8584 8.90192 27.289 6.40199 20.7684 6.40199C14.2307 6.40199 10.5974 8.94848 10.5974 12.7477C10.5974 19.324 23.0561 19.4393 23.0561 23.0312C23.0561 24.0711 22.3912 24.6598 20.8743 24.6598C18.8794 24.6598 18.068 23.9381 18.1739 21.467C18.1739 20.9359 10.5974 20.7563 10.3467 21.467C9.78761 27.4258 14.9782 29.1519 20.9319 29.1519C26.7315 29.1519 31.2571 26.9524 31.2571 22.9736C31.2571 15.9239 18.5881 16.1135 18.5881 12.6269C18.5881 11.1945 20.0894 11.0039 20.9319 11.0039C21.8726 11.0039 23.528 11.1081 23.4065 13.7643L23.405 13.7521Z" fill="#FB4985"/>
</svg>
